<svg width="34" height="34" viewBox="0 0 34 34" fill="none" xmlns="http://www.w3.org/2000/svg">
<circle cx="17" cy="16.8425" r="16.8425" fill="white"/>
<g clip-path="url(#clip0_579_3665)">
<path d="M21.4899 25.7101H13.5966C10.6087 25.7101 8.1778 23.4143 8.1778 20.5924V13.0914C8.1778 10.2694 10.6087 7.97363 13.5966 7.97363H21.4899C24.4778 7.97363 26.9087 10.2694 26.9087 13.0914V20.5924C26.9087 23.4143 24.4778 25.7101 21.4899 25.7101ZM13.5966 10.0768C11.8365 10.0768 10.4046 11.4291 10.4046 13.0914V20.5924C10.4046 22.2547 11.8365 23.607 13.5966 23.607H21.4899C23.25 23.607 24.6819 22.2547 24.6819 20.5924V13.0914C24.6819 11.4291 23.25 10.0768 21.4899 10.0768H13.5966Z" fill="#1D1D1B"/>
<path d="M17.5433 21.2301C14.9814 21.2301 12.8972 19.2616 12.8972 16.8421C12.8972 14.4225 14.9814 12.4541 17.5433 12.4541C20.1051 12.4541 22.1894 14.4226 22.1894 16.8421C22.1894 19.2616 20.1052 21.2301 17.5433 21.2301ZM17.5433 14.5056C16.1792 14.5056 15.0694 15.5538 15.0694 16.8421C15.0694 18.1304 16.1791 19.1786 17.5433 19.1786C18.9074 19.1786 20.0172 18.1304 20.0172 16.8421C20.0172 15.5538 18.9074 14.5056 17.5433 14.5056Z" fill="#1D1D1B"/>
<path d="M22.2987 13.1255C21.8464 13.1255 21.4785 12.778 21.4785 12.3509C21.4785 11.9237 21.8464 11.5762 22.2987 11.5762C22.751 11.5762 23.119 11.9237 23.119 12.3509C23.119 12.778 22.7511 13.1255 22.2987 13.1255Z" fill="#1D1D1B"/>
</g>
<defs>
<clipPath id="clip0_579_3665">
<rect width="19.5591" height="18.4724" fill="white" transform="translate(7.76373 7.60596)"/>
</clipPath>
</defs>
</svg>
