<svg width="34" height="34" viewBox="0 0 34 34" fill="none" xmlns="http://www.w3.org/2000/svg">
<circle cx="16.8425" cy="16.8425" r="16.8425" fill="white"/>
<path d="M5.79919 16.8843L10.2267 18.3878L20.7393 11.9611C20.8919 11.8683 21.0479 12.0752 20.9166 12.1962L12.9581 19.5215L12.6625 23.6225C12.6577 23.6912 12.6738 23.7597 12.7089 23.819C12.7439 23.8783 12.7961 23.9255 12.8586 23.9545C12.9211 23.9834 12.9909 23.9927 13.0588 23.981C13.1266 23.9694 13.1894 23.9373 13.2386 23.8892L15.6889 21.4795L20.1686 24.8703C20.6513 25.236 21.3504 24.9782 21.4804 24.387L24.5996 10.2245C24.7776 9.41666 23.9856 8.73466 23.2136 9.03029L5.77719 15.7073C5.22994 15.917 5.24507 16.6959 5.79919 16.8843Z" fill="#1D1D1B"/>
</svg>
