<svg width="34" height="34" viewBox="0 0 34 34" fill="none" xmlns="http://www.w3.org/2000/svg">
<path d="M17 0.398438C7.83122 0.398438 0.398438 7.83122 0.398438 17C0.398438 26.1688 7.83122 33.6016 17 33.6016C26.1688 33.6016 33.6016 26.1688 33.6016 17C33.6016 7.83122 26.1688 0.398438 17 0.398438ZM17.2145 27.0424C15.3556 27.0424 13.6398 26.5457 12.1385 25.765L6.27592 27.6101L8.20622 22.0746C7.27686 20.5133 6.70491 18.668 6.70491 16.752C6.70491 11.0036 11.4235 6.39067 17.2145 6.39067C23.0055 6.31968 27.7241 10.9329 27.7241 16.6811C27.7241 22.4292 23.0055 27.0424 17.2145 27.0424Z" fill="white"/>
<path d="M17.2145 7.95215C12.3529 7.95215 8.34924 11.8554 8.34924 16.6813C8.34891 18.526 8.95147 20.3203 10.0652 21.7909L8.99272 25.0555L12.4245 23.991C13.8723 24.9272 15.5619 25.4205 17.2861 25.4104C22.1476 25.4104 26.1513 21.5071 26.1513 16.6813C26.0796 11.8554 22.0761 7.95215 17.2145 7.95215ZM22.4662 19.7154L22.359 20.2275C22.2982 20.515 22.1812 20.7875 22.0147 21.0296C21.8482 21.2716 21.6355 21.4784 21.3888 21.6379C20.7531 22.0371 19.9368 22.2367 18.893 21.944C15.6613 21.0325 13.8347 18.9037 12.8511 17.5731C11.8674 16.2425 11.4861 14.9119 11.7337 13.8278C11.901 13.1026 12.4362 12.5371 12.7708 12.251C12.9367 12.1112 13.1497 12.0399 13.3663 12.0518L14.0555 12.0916C14.1222 12.0958 14.1863 12.1186 14.2408 12.1574C14.2952 12.1962 14.3376 12.2495 14.3633 12.3112L15.3669 14.6529C15.3924 14.7145 15.4003 14.782 15.3897 14.8478C15.379 14.9136 15.3503 14.9752 15.3066 15.0255L14.4301 16.0301C14.3958 16.0699 14.3743 16.1191 14.3683 16.1713C14.3624 16.2235 14.3724 16.2763 14.3969 16.3228C15.5545 18.5315 17.6554 19.4097 18.2843 19.6293C18.3363 19.6477 18.3927 19.6493 18.4455 19.6338C18.4984 19.6183 18.545 19.5865 18.5787 19.543L19.4951 18.3588C19.5452 18.2949 19.6153 18.2497 19.6942 18.2304C19.7731 18.2112 19.8561 18.2189 19.93 18.2526L22.2652 19.317C22.3385 19.3513 22.3981 19.4092 22.4345 19.4814C22.471 19.5537 22.4821 19.636 22.4662 19.7154Z" fill="white"/>
</svg>
