<svg width="34" height="34" viewBox="0 0 34 34" fill="none" xmlns="http://www.w3.org/2000/svg">
<circle cx="17.1575" cy="16.8425" r="16.8425" fill="white"/>
<g clip-path="url(#clip0_579_3672)">
<path d="M26.3588 11.6726C25.6808 10.9115 24.4293 10.6011 22.039 10.6011H13.3625C10.9175 10.6011 9.64471 10.9316 8.96939 11.7418C8.31091 12.5318 8.31091 13.6959 8.31091 15.3069V18.3775C8.31091 21.4987 9.09213 23.0833 13.3625 23.0833H22.0391C24.1119 23.0833 25.2605 22.8093 26.0036 22.1377C26.7656 21.449 27.0907 20.3244 27.0907 18.3775V15.3069C27.0907 13.6079 27.0398 12.437 26.3588 11.6726ZM20.3676 17.2662L16.4276 19.211C16.3395 19.2545 16.2432 19.276 16.147 19.276C16.0381 19.276 15.9294 19.2483 15.8332 19.1933C15.6519 19.0896 15.5412 18.904 15.5412 18.7039V14.8268C15.5412 14.627 15.6516 14.4416 15.8325 14.3378C16.0135 14.234 16.2386 14.2269 16.4263 14.319L20.3663 16.2513C20.5667 16.3495 20.6926 16.545 20.6929 16.7582C20.6931 16.9717 20.5678 17.1674 20.3676 17.2662Z" fill="#1D1D1B"/>
</g>
<defs>
<clipPath id="clip0_579_3672">
<rect width="19.5591" height="18.4724" fill="white" transform="translate(7.92126 7.60596)"/>
</clipPath>
</defs>
</svg>
