<svg width="199" height="41" viewBox="0 0 199 41" fill="none" xmlns="http://www.w3.org/2000/svg">
<g clip-path="url(#clip0_1297_1158)">
<path d="M4.1516 19.9082L8.05138 29.8393L11.9042 19.9082H14.9112V32.8915H12.562V28.6093L12.7969 22.8693L8.85013 32.8915H7.20564L3.25887 22.8693L3.44681 28.6093V32.8915H1.14453V19.9082H4.1516Z" fill="white"/>
<path d="M25.9531 27.0604H20.4558V31.0693H26.8928V32.8915H18.1066V19.9082H26.7989V21.6849H20.4558V25.2838H25.9531V27.0604Z" fill="white"/>
<mask id="mask0_1297_1158" style="mask-type:luminance" maskUnits="userSpaceOnUse" x="-40" y="-172" width="281" height="385">
<path d="M240.018 -171.289H-39.6858V212.243H240.018V-171.289Z" fill="white"/>
</mask>
<g mask="url(#mask0_1297_1158)">
<path d="M31.5444 28.0626V32.8915H29.1951V19.9082H34.3165C35.8201 19.9082 36.9947 20.2726 37.8874 21.0471C38.7801 21.8215 39.203 22.8237 39.203 24.0537C39.203 25.3293 38.7801 26.3315 37.8874 27.0149C36.9947 27.6982 35.8201 28.0626 34.2695 28.0626H31.5444ZM31.5444 26.2404H34.3635C35.2093 26.2404 35.8201 26.0582 36.2429 25.6938C36.6658 25.3293 36.9007 24.7826 36.9007 24.0537C36.9007 23.3704 36.6658 22.7782 36.2429 22.3682C35.8201 21.9582 35.2093 21.7304 34.4105 21.7304H31.5444V26.2404Z" fill="white"/>
</g>
<mask id="mask1_1297_1158" style="mask-type:luminance" maskUnits="userSpaceOnUse" x="-40" y="-172" width="281" height="385">
<path d="M240.018 -171.289H-39.6858V212.243H240.018V-171.289Z" fill="white"/>
</mask>
<g mask="url(#mask1_1297_1158)">
<path d="M45.7335 27.2882H44.136V32.8915H41.8337V19.9082H44.136V25.3293H45.4046L49.3514 19.9082H52.2175L47.6129 26.1037L52.5934 32.8915H49.8213L45.7335 27.2882Z" fill="white"/>
</g>
<mask id="mask2_1297_1158" style="mask-type:luminance" maskUnits="userSpaceOnUse" x="-40" y="-172" width="281" height="385">
<path d="M240.018 -171.289H-39.6858V212.243H240.018V-171.289Z" fill="white"/>
</mask>
<g mask="url(#mask2_1297_1158)">
<path d="M59.1716 26.696L61.8498 19.9082H64.4339L59.7824 30.6593L59.3595 31.4793C58.7487 32.5271 57.762 33.0738 56.3994 33.0738L55.4597 33.0282V31.2515C55.6007 31.2971 55.8826 31.2971 56.2585 31.2971C56.9163 31.2971 57.3861 31.0238 57.668 30.4771L58.1379 29.3838L53.5803 19.9082H56.1175L59.1716 26.696Z" fill="white"/>
</g>
<mask id="mask3_1297_1158" style="mask-type:luminance" maskUnits="userSpaceOnUse" x="-40" y="-172" width="281" height="385">
<path d="M240.018 -171.289H-39.6858V212.243H240.018V-171.289Z" fill="white"/>
</mask>
<g mask="url(#mask3_1297_1158)">
<path d="M69.0382 28.0626V32.8915H66.689V19.9082H71.8104C73.3139 19.9082 74.4885 20.2726 75.3813 21.0471C76.274 21.8215 76.6968 22.8237 76.6968 24.0537C76.6968 25.3293 76.274 26.3315 75.3813 27.0149C74.4885 27.6982 73.3139 28.0626 71.7634 28.0626H69.0382ZM69.0382 26.2404H71.8574C72.7031 26.2404 73.3139 26.0582 73.7368 25.6938C74.1596 25.3293 74.3946 24.7826 74.3946 24.0537C74.3946 23.3704 74.1596 22.7782 73.7368 22.3682C73.3139 21.9582 72.7031 21.7304 71.9043 21.7304H69.0382V26.2404Z" fill="white"/>
</g>
<mask id="mask4_1297_1158" style="mask-type:luminance" maskUnits="userSpaceOnUse" x="-40" y="-172" width="281" height="385">
<path d="M240.018 -171.289H-39.6858V212.243H240.018V-171.289Z" fill="white"/>
</mask>
<g mask="url(#mask4_1297_1158)">
<path d="M87.4099 19.9082H89.7592V32.8915H87.4099V23.6438L81.5368 32.8915H79.1875V19.9082H81.5368V29.156L87.4099 19.9082Z" fill="white"/>
</g>
<mask id="mask5_1297_1158" style="mask-type:luminance" maskUnits="userSpaceOnUse" x="-40" y="-172" width="281" height="385">
<path d="M240.018 -171.289H-39.6858V212.243H240.018V-171.289Z" fill="white"/>
</mask>
<g mask="url(#mask5_1297_1158)">
<path d="M101.224 19.9076H103.573V32.8909H101.224V23.6431L95.3504 32.8909H93.0012V19.9076H95.3504V29.1554L101.224 19.9076ZM101.271 16.582C101.271 17.3109 100.989 17.9487 100.472 18.4043C99.955 18.8598 99.2032 19.0876 98.3105 19.0876C97.4178 19.0876 96.666 18.8598 96.1492 18.4043C95.6323 17.9487 95.3504 17.3565 95.3504 16.582H97.0419C97.0419 16.992 97.1359 17.2654 97.3708 17.4931C97.6057 17.7209 97.9346 17.812 98.3105 17.812C98.7334 17.812 99.0153 17.7209 99.2502 17.4931C99.4851 17.2654 99.5791 16.992 99.5791 16.582H101.271Z" fill="white"/>
</g>
<mask id="mask6_1297_1158" style="mask-type:luminance" maskUnits="userSpaceOnUse" x="-40" y="-172" width="281" height="385">
<path d="M240.018 -171.289H-39.6858V212.243H240.018V-171.289Z" fill="white"/>
</mask>
<g mask="url(#mask6_1297_1158)">
<path d="M163.479 28.6535C163.338 30.0202 162.821 31.1135 161.881 31.8879C160.942 32.6624 159.72 33.0724 158.216 33.0724C157.136 33.0724 156.196 32.8446 155.397 32.3435C154.599 31.8424 153.941 31.1591 153.518 30.2479C153.095 29.3368 152.86 28.2891 152.813 27.1046V25.8746C152.813 24.6446 153.048 23.5513 153.471 22.6402C153.941 21.7291 154.552 21.0002 155.397 20.4991C156.243 19.9979 157.183 19.7246 158.31 19.7246C159.767 19.7246 160.989 20.1346 161.881 20.9091C162.774 21.6835 163.291 22.7768 163.432 24.1891H161.13C161.036 23.278 160.754 22.5946 160.284 22.1846C159.814 21.7746 159.156 21.5468 158.31 21.5468C157.277 21.5468 156.525 21.9113 155.961 22.6402C155.397 23.3691 155.162 24.4168 155.115 25.7835V26.9224C155.115 28.3346 155.397 29.3824 155.914 30.1568C156.431 30.8857 157.183 31.2502 158.169 31.2502C159.062 31.2502 159.767 31.0679 160.237 30.6579C160.707 30.2479 160.989 29.6102 161.13 28.6535H163.479Z" fill="white"/>
</g>
<mask id="mask7_1297_1158" style="mask-type:luminance" maskUnits="userSpaceOnUse" x="-40" y="-172" width="281" height="385">
<path d="M240.018 -171.289H-39.6858V212.243H240.018V-171.289Z" fill="white"/>
</mask>
<g mask="url(#mask7_1297_1158)">
<path d="M166.016 32.8915V19.9082H170.621C172.124 19.9082 173.299 20.1815 174.098 20.7738C174.896 21.366 175.272 22.2315 175.272 23.416C175.272 24.0082 175.084 24.5549 174.755 25.0104C174.426 25.466 173.957 25.876 173.299 26.1037C174.004 26.286 174.567 26.6504 174.99 27.1971C175.366 27.7438 175.601 28.336 175.601 29.1104C175.601 30.3404 175.178 31.2515 174.38 31.9349C173.581 32.5726 172.406 32.9371 170.903 32.9371H166.016V32.8915ZM168.365 25.3749H170.668C171.372 25.3749 171.936 25.2382 172.359 24.9193C172.782 24.6004 172.97 24.1449 172.97 23.5526C172.97 22.9149 172.782 22.4593 172.406 22.1404C172.03 21.8671 171.419 21.7304 170.668 21.7304H168.412V25.3749H168.365ZM168.365 27.0149V31.0693H170.95C171.701 31.0693 172.265 30.8871 172.641 30.5226C173.064 30.1582 173.252 29.7026 173.252 29.0649C173.252 27.6982 172.547 27.0149 171.138 27.0149H168.365Z" fill="white"/>
</g>
<mask id="mask8_1297_1158" style="mask-type:luminance" maskUnits="userSpaceOnUse" x="-40" y="-172" width="281" height="385">
<path d="M240.018 -171.289H-39.6858V212.243H240.018V-171.289Z" fill="white"/>
</mask>
<g mask="url(#mask8_1297_1158)">
<path d="M186.22 27.0604H180.676V31.0693H187.113V32.8915H178.373V19.9082H187.066V21.6849H180.676V25.2838H186.22V27.0604Z" fill="white"/>
</g>
<mask id="mask9_1297_1158" style="mask-type:luminance" maskUnits="userSpaceOnUse" x="-40" y="-172" width="281" height="385">
<path d="M240.018 -171.289H-39.6858V212.243H240.018V-171.289Z" fill="white"/>
</mask>
<g mask="url(#mask9_1297_1158)">
<path d="M199.188 21.6849H195.006V32.8915H192.704V21.6849H188.569V19.9082H199.188V21.6849Z" fill="white"/>
</g>
<mask id="mask10_1297_1158" style="mask-type:luminance" maskUnits="userSpaceOnUse" x="-40" y="-172" width="281" height="385">
<path d="M240.018 -171.289H-39.6858V212.243H240.018V-171.289Z" fill="white"/>
</mask>
<g mask="url(#mask10_1297_1158)">
<path d="M145.484 24.4173C145.484 33.3006 138.06 40.4984 128.898 40.4984C119.736 40.4984 112.312 33.3006 112.312 24.4173C112.312 15.5339 119.736 8.33615 128.898 8.33615C138.06 8.2906 145.484 15.5339 145.484 24.4173Z" fill="#E80017"/>
</g>
<mask id="mask11_1297_1158" style="mask-type:luminance" maskUnits="userSpaceOnUse" x="-40" y="-172" width="281" height="385">
<path d="M240.018 -171.289H-39.6858V212.243H240.018V-171.289Z" fill="white"/>
</mask>
<g mask="url(#mask11_1297_1158)">
<path d="M115.883 4.55508C115.883 6.83286 114.003 8.65508 111.654 8.65508C109.305 8.65508 107.426 6.83286 107.426 4.55508C107.426 2.2773 109.305 0.455078 111.654 0.455078C113.957 0.455078 115.883 2.2773 115.883 4.55508Z" fill="#E80017"/>
</g>
</g>
<defs>
<clipPath id="clip0_1297_1158">
<rect width="199" height="41" fill="white"/>
</clipPath>
</defs>
</svg>
