<svg width="24" height="23" viewBox="0 0 24 23" fill="none" xmlns="http://www.w3.org/2000/svg">
<path d="M9.81277 22.8125C9.5807 22.8125 9.35814 22.7203 9.19405 22.5562C9.02995 22.3921 8.93777 22.1696 8.93777 21.9375V13.5244L0.826516 4.60375C0.507217 4.25189 0.296911 3.81492 0.221123 3.34587C0.145335 2.87681 0.207323 2.39584 0.399563 1.96133C0.591804 1.52682 0.906032 1.15745 1.30411 0.898053C1.70219 0.638653 2.167 0.500374 2.64214 0.5H21.3584C21.8335 0.500374 22.2983 0.638653 22.6964 0.898053C23.0945 1.15745 23.4087 1.52682 23.601 1.96133C23.7932 2.39584 23.8552 2.87681 23.7794 3.34587C23.7036 3.81492 23.4933 4.25189 23.174 4.60375L15.0628 13.5244V18.4375C15.0627 18.5686 15.0332 18.698 14.9764 18.8161C14.9196 18.9342 14.837 19.0381 14.7346 19.12L10.3596 22.62C10.2045 22.7444 10.0116 22.8123 9.81277 22.8125ZM2.64214 2.25C2.50598 2.25034 2.37284 2.29014 2.25883 2.36457C2.14482 2.43901 2.05483 2.54489 1.99974 2.66941C1.94466 2.79393 1.92684 2.93174 1.94846 3.06618C1.97007 3.20061 2.03018 3.3259 2.12152 3.42687L10.4603 12.6144C10.6031 12.7715 10.684 12.9752 10.6878 13.1875V20.1175L13.3128 18V13.1875C13.3122 12.9691 13.3934 12.7585 13.5403 12.5969L21.879 3.40937C21.9649 3.30794 22.0204 3.18428 22.0389 3.05267C22.0575 2.92106 22.0385 2.78688 21.9841 2.66563C21.9296 2.54437 21.842 2.441 21.7312 2.36746C21.6205 2.29391 21.4913 2.25319 21.3584 2.25H2.64214Z" fill="#1D1D1B"/>
</svg>
