<svg width="30" height="28" viewBox="0 0 30 28" fill="none" xmlns="http://www.w3.org/2000/svg">
<path d="M28.3785 19.8772C25.3941 17.8679 21.807 16.7633 18.1127 16.716V13.9996C18.1127 13.8798 18.0611 13.765 17.9693 13.6803C17.8775 13.5956 17.753 13.548 17.6232 13.548H17.1337V11.7416C17.1303 10.9204 16.527 10.2046 15.6651 9.99933V2.7096H19.0918C19.2216 2.7096 19.3461 2.66202 19.4379 2.57733C19.5297 2.49264 19.5813 2.37777 19.5813 2.258V0.4516C19.5813 0.331828 19.5297 0.216962 19.4379 0.132271C19.3461 0.0475792 19.2216 0 19.0918 0L11.2594 0C11.1296 0 11.0051 0.0475792 10.9133 0.132271C10.8215 0.216962 10.7699 0.331828 10.7699 0.4516V2.258C10.7699 2.37777 10.8215 2.49264 10.9133 2.57733C11.0051 2.66202 11.1296 2.7096 11.2594 2.7096H14.6861V9.99933C13.8242 10.2046 13.2209 10.9204 13.2175 11.7416V13.548H12.728C12.5982 13.548 12.4737 13.5956 12.3818 13.6803C12.29 13.765 12.2385 13.8798 12.2385 13.9996V16.7146C8.54409 16.762 4.95681 17.8666 1.97224 19.8758C1.68094 20.0728 1.44118 20.3275 1.27057 20.6212C1.09997 20.9149 1.00285 21.2401 0.986347 21.5729C0.981757 21.6074 0.979432 21.6421 0.979493 21.6768C0.979493 22.1072 0.987326 22.8225 11.6481 23.0014L11.3015 24.6C11.0704 25.6594 11.7993 26.695 12.9424 26.9312C13.6059 27.0223 14.2203 27.3072 14.6954 27.7441L14.8295 27.8678C14.9213 27.9525 15.0458 28 15.1756 28C15.3054 28 15.4299 27.9525 15.5217 27.8678L15.6558 27.7441C16.1447 27.299 16.7761 27.0112 17.4563 26.9235C18.5745 26.6661 19.2761 25.6434 19.0497 24.6009L18.7031 23.0023C29.3639 22.8225 29.3717 22.1072 29.3717 21.6768C29.3717 21.6425 29.3694 21.6083 29.3648 21.5743C29.3484 21.2414 29.2512 20.9161 29.0805 20.6224C28.9098 20.3287 28.6699 20.0741 28.3785 19.8772ZM11.749 0.9032H18.6022V1.8064H11.749V0.9032ZM14.1966 11.7416C14.1966 11.2428 14.6349 10.8384 15.1756 10.8384C15.7163 10.8384 16.1546 11.2428 16.1546 11.7416V13.548H14.1966V11.7416ZM17.1337 14.4512V16.7092H13.2175V14.4512H17.1337ZM2.54841 20.6074C5.44638 18.655 8.94368 17.6058 12.5322 17.6124H17.819C21.4084 17.6052 24.9067 18.6544 27.8052 20.6074C27.9293 20.6942 28.0371 20.7992 28.1244 20.9181C27.0591 20.7515 25.9843 20.6412 24.9053 20.5875C22.3025 20.4164 18.847 20.322 15.1756 20.322C11.5042 20.322 8.04866 20.4164 5.44882 20.5875C4.36984 20.6411 3.29507 20.7515 2.22973 20.9181C2.31685 20.7992 2.4245 20.6942 2.54841 20.6074ZM3.33262 21.6768C5.01804 21.488 8.01146 21.3119 12.0275 21.2491L11.8429 22.1009C7.65362 22.0322 4.88538 21.8538 3.33262 21.6768ZM17.2668 26.0375C16.4929 26.1437 15.7677 26.4507 15.1756 26.9226C14.5978 26.4581 13.8892 26.1542 13.1318 26.046C12.5209 25.9054 12.1376 25.3466 12.2615 24.777L13.029 21.2365C13.7183 21.229 14.4338 21.2252 15.1756 21.2252C15.9174 21.2252 16.6329 21.229 17.3221 21.2365L18.0897 24.777C18.1049 24.8474 18.1127 24.9189 18.1127 24.9907C18.1149 25.2264 18.0335 25.4564 17.8807 25.6454C17.728 25.8344 17.5124 25.9721 17.2668 26.0375ZM18.5083 22.1009L18.3237 21.2491C22.3378 21.3119 25.3332 21.488 27.0186 21.6768C25.4658 21.8538 22.6976 22.0322 18.5083 22.1009Z" fill="white"/>
</svg>
