<svg width="20" height="26" viewBox="0 0 20 26" fill="none" xmlns="http://www.w3.org/2000/svg">
<path d="M19.5046 13.0844L16.8057 1.34393C16.6232 0.552652 15.9281 0 15.1152 0H4.88462C4.06653 0 3.37109 0.553617 3.19396 1.34413L0.495039 13.0849C0.247125 14.1712 1.06958 15.2054 2.1857 15.2054H8.67326V22.5837H5.29651C4.55541 22.5837 3.95238 23.1868 3.95238 23.9279V25.5938C3.95238 25.8183 4.13428 26 4.35863 26H15.6411C15.8654 26 16.0473 25.8183 16.0473 25.5938V23.9279C16.0473 23.1868 15.4442 22.5838 14.7032 22.5838H11.3265V15.2053H14.9324V17.4988C14.3355 17.6756 13.8961 18.2225 13.8961 18.8759C13.8961 19.6689 14.5434 20.3144 15.3388 20.3144C16.1342 20.3144 16.7813 19.6689 16.7813 18.8759C16.7813 18.2224 16.3418 17.6754 15.7449 17.4987V15.2053H17.8142C18.9304 15.2053 19.7528 14.1712 19.5046 13.0844ZM15.2348 23.9279V25.1875H4.76488V23.9279C4.76488 23.6347 5.00335 23.3962 5.29651 23.3962H14.7032C14.9964 23.3962 15.2348 23.6347 15.2348 23.9279ZM9.48576 22.5837V15.2057H10.5139V22.5837H9.48576ZM15.9687 18.8759C15.9687 19.2211 15.6861 19.502 15.3388 19.502C14.9913 19.502 14.7085 19.2211 14.7085 18.8759C14.7085 18.5284 14.9912 18.2459 15.3388 18.2459C15.686 18.2459 15.9687 18.5284 15.9687 18.8759ZM17.8141 14.3928H2.1857C1.59085 14.3928 1.15545 13.8426 1.28712 13.2661L3.9863 1.52405C4.08035 1.1051 4.44968 0.8125 4.88467 0.8125H15.1152C15.5474 0.8125 15.9169 1.10607 16.0137 1.52618L18.7125 13.2657C18.8446 13.8431 18.4081 14.3928 17.8141 14.3928Z" fill="#1D1D1B"/>
</svg>
