<svg width="22" height="26" viewBox="0 0 22 26" fill="none" xmlns="http://www.w3.org/2000/svg">
<path d="M21.1482 3.96082C21.1482 3.85925 21.1078 3.76186 21.036 3.69C18.3867 1.04072 15.9046 1.64185 15.1046 1.94L14.0752 0.910347C13.5567 0.390227 12.8711 0.0698822 12.1395 0.00579317C11.4079 -0.0582959 10.6771 0.137987 10.076 0.560034C9.47498 0.982081 9.04223 1.60279 8.85409 2.31272C8.66594 3.02265 8.7345 3.77621 9.04765 4.44054L2.88612 10.6021C2.80299 10.5894 2.71907 10.5828 2.63499 10.5822C2.38913 10.5803 2.14554 10.6293 1.91953 10.7261C1.69352 10.8229 1.48998 10.9655 1.32172 11.1447C1.15345 11.324 1.02408 11.5362 0.94176 11.7678C0.859435 11.9995 0.825928 12.2457 0.843346 12.491C0.860763 12.7362 0.928729 12.9752 1.04297 13.193C1.15721 13.4107 1.31526 13.6024 1.50717 13.7561C1.69909 13.9098 1.92072 14.0221 2.15814 14.086C2.39557 14.1499 2.64364 14.164 2.88678 14.1274L9.45037 20.6913C9.41119 20.7827 9.37837 20.8768 9.35215 20.9728L8.95315 22.4684H5.67453C5.28306 22.4688 4.90776 22.6246 4.63095 22.9014C4.35414 23.1782 4.19843 23.5535 4.19796 23.9449V25.6203C4.19796 25.7219 4.2383 25.8192 4.31009 25.891C4.38188 25.9628 4.47925 26.0032 4.58078 26.0032H18.2925C18.3427 26.0032 18.3925 25.9933 18.439 25.9741C18.4855 25.9549 18.5277 25.9267 18.5632 25.8911C18.5988 25.8555 18.627 25.8133 18.6462 25.7669C18.6654 25.7204 18.6753 25.6706 18.6753 25.6203V23.9449C18.6748 23.5535 18.5191 23.1782 18.2423 22.9014C17.9655 22.6246 17.5902 22.4688 17.1987 22.4684H13.9201L13.5211 20.9728C13.3899 20.4679 13.0788 20.0283 12.6462 19.7367C12.2136 19.4452 11.6894 19.3218 11.1722 19.3897L4.3979 12.6154C4.42415 12.4492 4.42415 12.2799 4.3979 12.1136L10.4269 6.08444L10.694 6.35C10.396 7.14997 9.7949 9.63125 12.444 12.2814C12.5157 12.3531 12.6131 12.3934 12.7146 12.3934C12.816 12.3934 12.9134 12.3531 12.9852 12.2814L15.3586 9.90797C15.8145 10.2358 16.3721 10.3909 16.9318 10.3455C17.4916 10.3001 18.0169 10.0573 18.4141 9.66024C18.8112 9.26322 19.0543 8.73795 19.0998 8.17825C19.1454 7.61855 18.9905 7.06087 18.6628 6.60485L21.0362 4.23141C21.108 4.15962 21.1483 4.06229 21.1482 3.96082ZM10.2053 1.45175C10.6467 1.0104 11.2453 0.762459 11.8695 0.762459C12.4937 0.762459 13.0924 1.0104 13.5338 1.45175L14.4744 2.39238L11.1463 5.72153L10.2057 4.78091C9.98713 4.56238 9.81373 4.30292 9.69543 4.01737C9.57713 3.73181 9.51624 3.42575 9.51624 3.11666C9.51624 2.80757 9.57713 2.50151 9.69543 2.21595C9.81373 1.9304 9.98713 1.67094 10.2057 1.45241L10.2053 1.45175ZM1.61781 12.3656C1.61776 12.1644 1.67738 11.9678 1.78913 11.8005C1.90087 11.6331 2.05972 11.5027 2.24558 11.4257C2.43145 11.3487 2.63597 11.3285 2.8333 11.3677C3.03063 11.407 3.2119 11.5038 3.35418 11.6461C3.49646 11.7883 3.59336 11.9696 3.63262 12.1669C3.67189 12.3642 3.65176 12.5687 3.57477 12.7546C3.49779 12.9405 3.36742 13.0994 3.20014 13.2112C3.03286 13.3229 2.83618 13.3826 2.63499 13.3826C2.36533 13.3824 2.10677 13.2752 1.91607 13.0845C1.72536 12.8938 1.6181 12.6353 1.61781 12.3656ZM17.9097 23.9458V25.2384H4.96271V23.9458C4.96295 23.7573 5.03792 23.5766 5.1712 23.4434C5.30447 23.3101 5.48517 23.2351 5.67365 23.2349H17.1987C17.387 23.2351 17.5676 23.31 17.7009 23.4431C17.8341 23.5761 17.9092 23.7566 17.9097 23.9449V23.9458ZM12.7815 21.1703L13.1278 22.4684H9.74568L10.092 21.1703C10.1706 20.8735 10.3451 20.611 10.5885 20.4237C10.8318 20.2364 11.1302 20.1349 11.4373 20.1349C11.7443 20.1349 12.0428 20.2364 12.2861 20.4237C12.5294 20.611 12.704 20.8735 12.7826 21.1703H12.7815ZM10.361 19.6609C10.1837 19.763 10.0216 19.8897 9.87978 20.0372L3.66159 13.8197C3.82776 13.702 3.97274 13.5569 4.09034 13.3907L10.361 19.6609ZM4.09012 11.3386C3.97256 11.1723 3.82749 11.0272 3.66115 10.9096L9.46656 5.10422C9.5289 5.17904 9.59409 5.25188 9.66343 5.32144L9.88524 5.54325L4.09012 11.3386ZM17.8744 9.12113C17.6203 9.37415 17.2889 9.53488 16.9329 9.57774C16.5768 9.62059 16.2167 9.5431 15.9098 9.3576L18.1111 7.15632C18.2966 7.46324 18.3741 7.82343 18.3312 8.17949C18.2883 8.53556 18.1275 8.86704 17.8744 9.12113ZM17.8744 6.30975L12.7205 11.4642C10.4805 9.00957 11.3032 6.84569 11.4642 6.4865L15.24 2.71044C15.599 2.54944 17.7629 1.72607 20.2179 3.96694L17.8744 6.30975Z" fill="#1D1D1B"/>
</svg>
