<svg width="22" height="28" viewBox="0 0 22 28" fill="none" xmlns="http://www.w3.org/2000/svg">
<path d="M18.5301 11.2071C17.1513 9.75758 15.3129 8.73232 13.2624 8.30808V7.03535C13.2624 6.75252 13.1564 6.4697 12.9443 6.29293C12.7321 6.11616 12.4847 5.97475 12.2018 5.97475H11.6362L11.6008 0.530303C11.6008 0.212121 11.3533 0 11.0705 0C10.7523 0 10.5402 0.247475 10.5402 0.530303L10.5756 5.97475H10.0099C9.72709 5.97475 9.44426 6.08081 9.26749 6.29293C9.09072 6.50505 8.94931 6.75252 8.94931 7.03535V8.27273C6.79274 8.73232 4.919 9.75758 3.46951 11.2071C1.52506 13.1515 0.358398 15.803 0.358398 18.7727C0.358398 19.0909 0.605873 19.303 0.888701 19.303H6.54527C6.68668 20.3283 7.11092 21.2475 7.81799 21.9545C8.63113 22.7677 9.76244 23.2626 10.9998 23.2626C12.2372 23.2626 13.3685 22.7677 14.1816 21.9545C14.8887 21.2475 15.3129 20.3283 15.4544 19.303H21.1109C21.4291 19.303 21.6412 19.0556 21.6412 18.7727C21.6412 15.8384 20.4392 13.1515 18.5301 11.2071ZM9.97456 7.07071H12.1665V8.13131H11.919C11.6362 8.09596 11.318 8.09596 11.0352 8.09596C10.7523 8.06061 10.4695 8.09596 10.1867 8.09596C10.116 8.09596 10.0453 8.09596 9.97456 8.13131V7.07071ZM13.4392 21.1768C12.8028 21.8131 11.9544 22.1667 11.0352 22.1667C10.0806 22.1667 9.23214 21.7778 8.63113 21.1768C8.13618 20.6818 7.78264 20.0455 7.67658 19.303H14.4291C14.2877 20.0101 13.9695 20.6818 13.4392 21.1768ZM14.9948 18.2071H1.45436C1.59577 15.7677 2.62102 13.5758 4.24729 11.9848C5.73214 10.5 7.67658 9.5101 9.8685 9.26263C9.93921 9.26263 10.0453 9.22727 10.116 9.22727C10.3988 9.19192 10.717 9.19192 10.9998 9.19192C11.318 9.19192 11.6008 9.19192 11.919 9.22727C11.9897 9.22727 12.0958 9.26263 12.1665 9.26263C14.3584 9.5101 16.3028 10.5 17.7877 11.9848C19.414 13.6111 20.4392 15.7677 20.5806 18.2071H14.9948ZM11.0352 24.005C10.717 24.005 10.5049 24.2525 10.5049 24.5354V27.4697C10.5049 27.7879 10.7523 28 11.0352 28C11.3533 28 11.5655 27.7525 11.5655 27.4697V24.5354C11.5655 24.2172 11.3533 24.005 11.0352 24.005ZM15.8786 26.0202L14.3938 23.4747C14.2523 23.2273 13.8988 23.1212 13.6513 23.2626C13.4039 23.404 13.2978 23.7576 13.4392 24.005L14.9241 26.5505C15.0655 26.798 15.419 26.904 15.6665 26.7626C15.914 26.6212 16.02 26.2677 15.8786 26.0202Z" fill="#1D1D1B"/>
<path d="M18.8485 22.6616L16.303 21.1768C16.0556 21.0354 15.702 21.1061 15.5606 21.3889C15.4192 21.6364 15.4899 21.9899 15.7727 22.1313L18.3182 23.6162C18.5657 23.7576 18.9192 23.6869 19.0606 23.4041C19.202 23.1566 19.1313 22.803 18.8485 22.6616ZM6.51012 21.3889C6.3687 21.1414 6.01517 21.0354 5.76769 21.1768L3.22224 22.6616C2.97476 22.803 2.8687 23.1566 3.01012 23.4041C3.15153 23.6515 3.50507 23.7576 3.75254 23.6162L6.298 22.1313C6.54547 21.9546 6.65153 21.6364 6.51012 21.3889ZM8.41921 23.2626C8.17173 23.1212 7.8182 23.2273 7.67678 23.4748L6.19194 26.0202C6.05052 26.2677 6.12123 26.6212 6.40406 26.7626C6.65153 26.9041 7.00507 26.8334 7.14648 26.5505L8.63133 24.0051C8.77274 23.7576 8.70204 23.4041 8.41921 23.2626Z" fill="#1D1D1B"/>
</svg>
