<svg width="25" height="25" viewBox="0 0 25 25" fill="none" xmlns="http://www.w3.org/2000/svg">
<path d="M23.9771 10.1303H23.9544C22.4087 8.51343 21.2543 6.97671 20.612 5.67969C20.4063 5.26445 20.0062 4.97339 19.5526 4.89351V4.64629C19.5526 4.02202 19.1503 3.4897 18.5917 3.29512L18.2482 0.961914C18.1717 0.441406 17.7169 0.0488281 17.1907 0.0488281H16.1297C15.6035 0.0488281 15.1489 0.441406 15.0723 0.962061L15.0585 1.05532H11.9569C10.1057 1.05532 8.42974 2.27129 7.68701 4.15308C6.90786 6.12695 5.19312 5.77412 5.07222 5.80957C4.84219 5.15288 4.21621 4.68042 3.48169 4.68042H3.35024V2.97202C3.35024 2.28711 2.79312 1.72998 2.1082 1.72998H1.24189C0.557129 1.72998 0 2.28711 0 2.97202V3.58657C0 3.6837 0.0385828 3.77684 0.107261 3.84552C0.175939 3.9142 0.269086 3.95278 0.366211 3.95278C0.463336 3.95278 0.556483 3.9142 0.625161 3.84552C0.693839 3.77684 0.732422 3.6837 0.732422 3.58657V2.97202C0.732422 2.69106 0.960938 2.4624 1.24189 2.4624H2.1082C2.38916 2.4624 2.61782 2.69106 2.61782 2.97202V10.3472C2.61782 11.3689 2.06431 12.3145 1.17339 12.8145C0.976172 12.9251 0.732422 12.7831 0.732422 12.5564V5.05161C0.732422 4.84927 0.568604 4.6854 0.366211 4.6854C0.269086 4.6854 0.175939 4.72398 0.107261 4.79266C0.0385828 4.86134 0 4.95449 0 5.05161L0 12.5565C0 13.3417 0.845166 13.8386 1.53198 13.4533C2.65352 12.8235 3.35005 11.6333 3.35005 10.3472V9.12305H3.48169C4.18071 9.12305 4.78174 8.69502 5.03618 8.08716C5.11724 8.06275 8.42856 8.47739 9.80547 4.98945C10.2026 3.98311 11.0472 3.33291 11.957 3.33291H14.632C13.6332 3.76509 13.7771 4.85879 13.768 4.89346C13.3143 4.97339 12.9143 5.26445 12.7084 5.67969C12.0661 6.97671 10.9118 8.51343 9.36602 10.1303H9.34336C8.77935 10.1303 8.32041 10.5892 8.32041 11.1532C8.32041 12.14 9.12324 12.9429 10.1099 12.9429H10.1494L12.6164 22.3017C12.7691 22.8815 13.2946 23.2864 13.8943 23.2864H13.9456C14.0997 23.58 14.2321 23.863 14.34 24.1299C14.5289 24.5974 15.0091 24.9115 15.535 24.9115H17.7854C18.3113 24.9115 18.7914 24.5974 18.9804 24.1299C19.0882 23.863 19.2206 23.58 19.3747 23.2864C19.3796 23.2847 20.4329 23.3301 20.7041 22.3017L23.1709 12.9429H23.2104C24.1972 12.9429 25 12.1401 25 11.1532C25 10.5893 24.5411 10.1303 23.9771 10.1303ZM16.1297 0.78125H17.1908C17.3563 0.78125 17.4994 0.904639 17.5236 1.06851L17.8396 3.21597H15.4809L15.7967 1.0687C15.8209 0.904834 15.964 0.78125 16.1297 0.78125ZM4.43359 7.43867C4.43359 7.96357 4.00654 8.39062 3.48164 8.39062H3.35V5.41284H3.48164C4.00654 5.41284 4.43359 5.83994 4.43359 6.36484V7.43867ZM9.12412 4.72051C8.49243 6.32075 7.08384 7.35474 5.53545 7.35474H5.16602V6.54199H5.53545C6.74795 6.54199 7.85977 5.70986 8.36826 4.42202C8.99976 2.82173 10.4083 1.78755 11.9567 1.78755H14.9507L14.8309 2.60049H11.9567C10.7444 2.60049 9.63242 3.43267 9.12412 4.72051ZM15.1983 3.94839H18.1221C18.5069 3.94839 18.82 4.26157 18.82 4.64629V4.87139H14.5001V4.64629C14.5001 4.26157 14.8134 3.94839 15.1983 3.94839ZM13.3647 6.00474C13.4855 5.76113 13.743 5.60381 14.0207 5.60381H19.2997C19.5773 5.60381 19.8348 5.76113 19.9556 6.00469C20.5619 7.22905 21.5908 8.64434 22.9513 10.1303H10.3691C11.7296 8.64429 12.7584 7.22905 13.3648 6.00474H13.3647ZM13.3245 22.1149L10.9067 12.9429H13.5187L15.184 22.554H13.8942C13.627 22.554 13.3926 22.3734 13.3245 22.1149ZM18.3013 23.8556C18.2231 24.0492 18.0158 24.1791 17.7854 24.1791H15.5349C15.3045 24.1791 15.0972 24.0492 15.019 23.8556C14.9409 23.6631 14.8565 23.4733 14.7659 23.2864H18.5544C18.4638 23.4733 18.3794 23.6632 18.3013 23.8556ZM19.9958 22.1149C19.9626 22.2407 19.8887 22.3519 19.7856 22.4313C19.6826 22.5107 19.5562 22.5539 19.4261 22.554H18.1364L18.4337 20.8385C18.4503 20.7428 18.4281 20.6444 18.3721 20.565C18.3162 20.4856 18.2309 20.4317 18.1352 20.4151C17.9363 20.3808 17.7465 20.5141 17.712 20.7134L17.3931 22.5538H15.9272L14.262 12.9427H19.0583L17.962 19.2699C17.9538 19.3173 17.955 19.3659 17.9655 19.4128C17.9761 19.4597 17.9958 19.5041 18.0235 19.5434C18.0512 19.5828 18.0863 19.6162 18.127 19.642C18.1676 19.6677 18.2129 19.6852 18.2603 19.6934C18.3077 19.7016 18.3563 19.7004 18.4032 19.6899C18.4501 19.6793 18.4945 19.6596 18.5338 19.6319C18.5732 19.6042 18.6066 19.5691 18.6324 19.5284C18.6581 19.4878 18.6756 19.4425 18.6838 19.3951L19.8017 12.9427H22.4134L19.9958 22.1149ZM23.2103 12.2105H10.1099C9.52695 12.2105 9.05278 11.7361 9.05278 11.1532C9.05285 11.0762 9.08348 11.0023 9.13795 10.9479C9.19242 10.8934 9.26628 10.8628 9.34331 10.8627H23.9771C24.0541 10.8628 24.1279 10.8934 24.1824 10.9479C24.2368 11.0023 24.2675 11.0762 24.2675 11.1532C24.2675 11.7361 23.7934 12.2105 23.2103 12.2105Z" fill="#1D1D1B"/>
</svg>
