<svg width="27" height="33" viewBox="0 0 27 33" fill="none" xmlns="http://www.w3.org/2000/svg">
<path fill-rule="evenodd" clip-rule="evenodd" d="M0.207335 25.7036C0.124629 25.906 0.10446 26.1285 0.14943 26.3424C0.1944 26.5563 0.302446 26.7519 0.459627 26.9038C3.83713 30.1676 8.43671 32.1772 13.5 32.1772C18.5634 32.1772 23.163 30.1676 26.5405 26.9038C26.6976 26.7519 26.8057 26.5563 26.8507 26.3424C26.8956 26.1285 26.8755 25.906 26.7928 25.7036C24.6534 20.4638 19.504 16.7684 13.5 16.7684C7.49609 16.7684 2.34671 20.4638 0.207335 25.7036ZM2.53775 25.8451C4.50504 21.7705 8.67588 18.9559 13.5 18.9559C18.3242 18.9559 22.495 21.7705 24.4623 25.8451C21.5384 28.4249 17.7015 29.9897 13.5 29.9897C9.29858 29.9897 5.46171 28.4234 2.53775 25.8451ZM13.5 0.822998C11.5696 0.824157 9.7186 1.59153 8.35359 2.95654C6.98857 4.32155 6.2212 6.17258 6.22004 8.103C6.22004 12.1222 9.48234 15.3845 13.5 15.3845C17.5178 15.3845 20.78 12.1222 20.78 8.103C20.7789 6.17258 20.0115 4.32155 18.6465 2.95654C17.2815 1.59153 15.4305 0.824157 13.5 0.822998ZM13.5 3.0105C14.8359 3.0331 16.1095 3.57965 17.0462 4.53236C17.9829 5.48506 18.5078 6.76765 18.5078 8.10373C18.5078 9.4398 17.9829 10.7224 17.0462 11.6751C16.1095 12.6278 14.8359 13.1744 13.5 13.197C12.1751 13.1581 10.9174 12.6045 9.99393 11.6536C9.07047 10.7026 8.55392 9.42927 8.55392 8.10373C8.55392 6.77819 9.07047 5.50483 9.99393 4.5539C10.9174 3.60297 12.1751 3.04934 13.5 3.0105Z" fill="#1D1D1B"/>
</svg>
