<svg width="33" height="27" viewBox="0 0 33 27" fill="none" xmlns="http://www.w3.org/2000/svg">
<path fill-rule="evenodd" clip-rule="evenodd" d="M30.7042 9.30146C30.7298 9.145 30.7211 8.98484 30.6786 8.83209C30.6361 8.67934 30.561 8.53765 30.4583 8.41683C30.3557 8.29601 30.228 8.19895 30.0841 8.13237C29.9402 8.06579 29.7836 8.03129 29.625 8.03125H3.37505C3.21651 8.03129 3.05987 8.06579 2.91599 8.13237C2.77211 8.19895 2.64442 8.29601 2.54177 8.41683C2.43912 8.53765 2.36396 8.67934 2.32151 8.83209C2.27905 8.98484 2.27031 9.145 2.29588 9.30146L4.51984 22.8975C4.67345 23.8364 5.15586 24.6902 5.88089 25.3062C6.60592 25.9222 7.52635 26.2604 8.47776 26.2604H24.5223C25.4737 26.2604 26.3942 25.9222 27.1192 25.3062C27.8442 24.6902 28.3267 23.8364 28.4803 22.8975L30.7042 9.30146ZM28.3373 10.2188L26.3205 22.5446C26.2506 22.9712 26.0314 23.359 25.7021 23.639C25.3727 23.9189 24.9546 24.0727 24.5223 24.0729H8.47776C8.0455 24.0727 7.62738 23.9189 7.29801 23.639C6.96865 23.359 6.74949 22.9712 6.67963 22.5446L4.66276 10.2188H28.3373Z" fill="#1D1D1B"/>
<path fill-rule="evenodd" clip-rule="evenodd" d="M26.1877 8.56225L21.8127 1.27059C21.6619 1.02496 21.4203 0.848779 21.1403 0.780325C20.8604 0.711872 20.5647 0.756685 20.3176 0.905023C20.0705 1.05336 19.8919 1.29323 19.8207 1.5725C19.7495 1.85177 19.7914 2.14786 19.9373 2.39642L24.3123 9.68809C24.4631 9.93371 24.7047 10.1099 24.9846 10.1783C25.2646 10.2468 25.5603 10.202 25.8074 10.0537C26.0545 9.90531 26.233 9.66544 26.3043 9.38617C26.3755 9.1069 26.3336 8.81081 26.1877 8.56225ZM8.6877 9.68809L13.0627 2.39642C13.2086 2.14786 13.2505 1.85177 13.1793 1.5725C13.108 1.29323 12.9295 1.05336 12.6824 0.905023C12.4353 0.756685 12.1396 0.711872 11.8596 0.780325C11.5797 0.848779 11.3381 1.02496 11.1873 1.27059L6.81228 8.56225C6.66639 8.81081 6.62451 9.1069 6.69573 9.38617C6.76694 9.66544 6.94551 9.90531 7.19261 10.0537C7.43971 10.202 7.73538 10.2468 8.01534 10.1783C8.2953 10.1099 8.53693 9.93371 8.6877 9.68809ZM15.4062 14.2293V20.0627C15.4062 20.3528 15.5215 20.631 15.7266 20.8361C15.9317 21.0412 16.2099 21.1564 16.5 21.1564C16.7901 21.1564 17.0683 21.0412 17.2734 20.8361C17.4785 20.631 17.5937 20.3528 17.5937 20.0627V14.2293C17.5937 13.9393 17.4785 13.6611 17.2734 13.4559C17.0683 13.2508 16.7901 13.1356 16.5 13.1356C16.2099 13.1356 15.9317 13.2508 15.7266 13.4559C15.5215 13.6611 15.4062 13.9393 15.4062 14.2293ZM9.57291 14.2293V20.0627C9.57291 20.3528 9.68814 20.631 9.89326 20.8361C10.0984 21.0412 10.3766 21.1564 10.6667 21.1564C10.9567 21.1564 11.2349 21.0412 11.4401 20.8361C11.6452 20.631 11.7604 20.3528 11.7604 20.0627V14.2293C11.7604 13.9393 11.6452 13.6611 11.4401 13.4559C11.2349 13.2508 10.9567 13.1356 10.6667 13.1356C10.3766 13.1356 10.0984 13.2508 9.89326 13.4559C9.68814 13.6611 9.57291 13.9393 9.57291 14.2293ZM21.2396 14.2293V20.0627C21.2396 20.3528 21.3548 20.631 21.5599 20.8361C21.765 21.0412 22.0432 21.1564 22.3333 21.1564C22.6234 21.1564 22.9016 21.0412 23.1067 20.8361C23.3118 20.631 23.4271 20.3528 23.4271 20.0627V14.2293C23.4271 13.9393 23.3118 13.6611 23.1067 13.4559C22.9016 13.2508 22.6234 13.1356 22.3333 13.1356C22.0432 13.1356 21.765 13.2508 21.5599 13.4559C21.3548 13.6611 21.2396 13.9393 21.2396 14.2293Z" fill="#1D1D1B"/>
<path fill-rule="evenodd" clip-rule="evenodd" d="M31.0834 8.03125H1.91669C1.62661 8.03125 1.34841 8.14648 1.14329 8.3516C0.938171 8.55672 0.822937 8.83492 0.822937 9.125C0.822937 9.41508 0.938171 9.69328 1.14329 9.8984C1.34841 10.1035 1.62661 10.2188 1.91669 10.2188H31.0834C31.3734 10.2188 31.6516 10.1035 31.8568 9.8984C32.0619 9.69328 32.1771 9.41508 32.1771 9.125C32.1771 8.83492 32.0619 8.55672 31.8568 8.3516C31.6516 8.14648 31.3734 8.03125 31.0834 8.03125Z" fill="#1D1D1B"/>
</svg>
