<svg width="35" height="23" viewBox="0 0 35 23" fill="none" xmlns="http://www.w3.org/2000/svg">
<path d="M17.5 3.01613C21.9728 3.01613 25.7587 5.05481 28.1471 6.76571C30.9772 8.79257 32.4332 10.7524 32.8104 11.5002C32.4324 12.248 30.9771 14.209 28.1471 16.2353C25.7589 17.9465 21.973 19.9854 17.5 19.9854C13.027 19.9854 9.24089 17.9465 6.85248 16.2353C4.02254 14.209 2.56696 12.248 2.1888 11.5002C2.56696 10.7524 4.02254 8.79257 6.85193 6.76571C9.24089 5.05481 13.0271 3.01613 17.5 3.01613ZM17.5 0.894531C7.83535 0.894531 0 9.37978 0 11.5002C0 13.6218 7.83535 22.1059 17.5 22.1059C27.1646 22.1059 35 13.6218 35 11.5002C35 9.37978 27.1649 0.894531 17.5 0.894531ZM17.5 5.13657C16.2414 5.13661 15.0111 5.50987 13.9646 6.20914C12.9181 6.90841 12.1025 7.90229 11.6209 9.0651C11.1393 10.2279 11.0133 11.5074 11.2589 12.7418C11.5044 13.9762 12.1105 15.1101 13.0005 16.0001C13.8905 16.89 15.0244 17.4961 16.2588 17.7416C17.4932 17.9871 18.7727 17.8611 19.9355 17.3794C21.0983 16.8978 22.0922 16.0821 22.7914 15.0356C23.4906 13.9892 23.8638 12.7588 23.8638 11.5002C23.8637 9.81249 23.1932 8.19393 21.9997 7.00055C20.8063 5.80716 19.1877 5.13668 17.5 5.13657ZM15.787 11.5002C15.2545 11.5003 14.7339 11.3424 14.2911 11.0466C13.8483 10.7508 13.5032 10.3304 13.2993 9.83843C13.0955 9.34648 13.0422 8.80513 13.146 8.28284C13.2498 7.76056 13.5062 7.2808 13.8828 6.90423C14.2593 6.52767 14.739 6.27122 15.2613 6.1673C15.7835 6.06339 16.3249 6.11669 16.8169 6.32046C17.3089 6.52422 17.7294 6.86931 18.0252 7.31207C18.3211 7.75483 18.479 8.27537 18.479 8.80788C18.479 9.52188 18.1954 10.2066 17.6906 10.7115C17.1857 11.2165 16.501 11.5001 15.787 11.5002Z" fill="#1D1D1B"/>
</svg>
