<svg width="29" height="27" viewBox="0 0 29 27" fill="none" xmlns="http://www.w3.org/2000/svg">
<path fill-rule="evenodd" clip-rule="evenodd" d="M2.76374 15.2974L2.76241 15.296L13.6502 26.1825C13.743 26.2755 13.8533 26.3492 13.9747 26.3996C14.0961 26.4499 14.2262 26.4758 14.3576 26.4758C14.489 26.4758 14.6192 26.4499 14.7405 26.3996C14.8619 26.3492 14.9722 26.2755 15.0651 26.1825L25.9542 15.2947C27.5844 13.6629 28.5 11.4506 28.5 9.14403C28.5 6.83745 27.5844 4.6252 25.9542 2.99338C24.4379 1.479 22.4162 0.577318 20.2764 0.461066C18.1365 0.344813 16.029 1.02217 14.3576 2.36336C12.6862 1.02217 10.5787 0.344813 8.43889 0.461066C6.29905 0.577318 4.27734 1.479 2.76107 2.99338C1.13089 4.6252 0.21521 6.83745 0.21521 9.14403C0.21521 11.4506 1.13089 13.6629 2.76107 15.2947L2.76374 15.2974ZM14.3576 24.0588L24.538 13.8785C25.7931 12.6225 26.4981 10.9196 26.4981 9.14403C26.4981 7.36846 25.7931 5.66554 24.538 4.40958C23.282 3.1545 21.5791 2.44948 19.8035 2.44948C18.0279 2.44948 16.325 3.1545 15.0691 4.40958C14.9763 4.50274 14.8661 4.57665 14.7447 4.62704C14.6233 4.67744 14.4931 4.70333 14.3616 4.70323H14.3536C14.2222 4.70333 14.092 4.67744 13.9706 4.62704C13.8492 4.57665 13.7389 4.50274 13.6462 4.40958C12.3902 3.1545 10.6873 2.44948 8.91173 2.44948C7.13616 2.44948 5.43324 3.1545 4.17727 4.40958C2.9222 5.66554 2.21718 7.36846 2.21718 9.14403C2.21718 10.9196 2.9222 12.6225 4.17727 13.8785L4.17861 13.8798L14.3576 24.0588Z" fill="#1D1D1B"/>
</svg>
