<svg width="232" height="48" viewBox="0 0 232 48" fill="none" xmlns="http://www.w3.org/2000/svg">
<g clip-path="url(#clip0_1297_81)">
<path d="M4.84007 23.3066L9.38655 34.9333L13.8783 23.3066H17.384V38.5066H14.6451V33.4933L14.919 26.7733L10.3178 38.5066H8.40057L3.79931 26.7733L4.01842 33.4933V38.5066H1.33435V23.3066H4.84007Z" fill="black"/>
<path d="M30.2569 31.68H23.848V36.3733H31.3525V38.5066H21.1092V23.3066H31.2429V25.3866H23.848V29.6H30.2569V31.68Z" fill="black"/>
<mask id="mask0_1297_81" style="mask-type:luminance" maskUnits="userSpaceOnUse" x="-47" y="-201" width="327" height="450">
<path d="M279.82 -200.533H-46.2668V248.48H279.82V-200.533Z" fill="white"/>
</mask>
<g mask="url(#mask0_1297_81)">
<path d="M36.7754 32.8533V38.5066H34.0366V23.3066H40.0072C41.7601 23.3066 43.1295 23.7333 44.1703 24.64C45.211 25.5466 45.704 26.72 45.704 28.16C45.704 29.6533 45.211 30.8266 44.1703 31.6266C43.1295 32.4266 41.7601 32.8533 39.9525 32.8533H36.7754ZM36.7754 30.72H40.062C41.048 30.72 41.7601 30.5066 42.2531 30.08C42.7461 29.6533 43.02 29.0133 43.02 28.16C43.02 27.36 42.7461 26.6666 42.2531 26.1866C41.7601 25.7066 41.048 25.44 40.1168 25.44H36.7754V30.72Z" fill="black"/>
</g>
<mask id="mask1_1297_81" style="mask-type:luminance" maskUnits="userSpaceOnUse" x="-47" y="-201" width="327" height="450">
<path d="M279.82 -200.533H-46.2668V248.48H279.82V-200.533Z" fill="white"/>
</mask>
<g mask="url(#mask1_1297_81)">
<path d="M53.3175 31.9466H51.4551V38.5066H48.771V23.3066H51.4551V29.6533H52.934L57.5353 23.3066H60.8767L55.5086 30.56L61.3149 38.5066H58.0831L53.3175 31.9466Z" fill="black"/>
</g>
<mask id="mask2_1297_81" style="mask-type:luminance" maskUnits="userSpaceOnUse" x="-47" y="-201" width="327" height="450">
<path d="M279.82 -200.533H-46.2668V248.48H279.82V-200.533Z" fill="white"/>
</mask>
<g mask="url(#mask2_1297_81)">
<path d="M68.984 31.2533L72.1063 23.3066H75.119L69.6961 35.8933L69.2031 36.8533C68.491 38.08 67.3407 38.72 65.7521 38.72L64.6566 38.6666V36.5866C64.8209 36.64 65.1496 36.64 65.5878 36.64C66.3547 36.64 66.9024 36.32 67.2311 35.68L67.7789 34.4L62.4655 23.3066H65.4235L68.984 31.2533Z" fill="black"/>
</g>
<mask id="mask3_1297_81" style="mask-type:luminance" maskUnits="userSpaceOnUse" x="-47" y="-201" width="327" height="450">
<path d="M279.82 -200.533H-46.2668V248.48H279.82V-200.533Z" fill="white"/>
</mask>
<g mask="url(#mask3_1297_81)">
<path d="M80.4868 32.8533V38.5066H77.7479V23.3066H83.7186C85.4715 23.3066 86.8409 23.7333 87.8817 24.64C88.9224 25.5466 89.4154 26.72 89.4154 28.16C89.4154 29.6533 88.9224 30.8266 87.8817 31.6266C86.8409 32.4266 85.4715 32.8533 83.6638 32.8533H80.4868ZM80.4868 30.72H83.7734C84.7594 30.72 85.4715 30.5066 85.9645 30.08C86.4575 29.6533 86.7313 29.0133 86.7313 28.16C86.7313 27.36 86.4575 26.6666 85.9645 26.1866C85.4715 25.7066 84.7594 25.44 83.8282 25.44H80.4868V30.72Z" fill="black"/>
</g>
<mask id="mask4_1297_81" style="mask-type:luminance" maskUnits="userSpaceOnUse" x="-47" y="-201" width="327" height="450">
<path d="M279.82 -200.533H-46.2668V248.48H279.82V-200.533Z" fill="white"/>
</mask>
<g mask="url(#mask4_1297_81)">
<path d="M101.905 23.3066H104.644V38.5066H101.905V27.68L95.0579 38.5066H92.3191V23.3066H95.0579V34.1333L101.905 23.3066Z" fill="black"/>
</g>
<mask id="mask5_1297_81" style="mask-type:luminance" maskUnits="userSpaceOnUse" x="-47" y="-201" width="327" height="450">
<path d="M279.82 -200.533H-46.2668V248.48H279.82V-200.533Z" fill="white"/>
</mask>
<g mask="url(#mask5_1297_81)">
<path d="M118.009 23.3074H120.748V38.5074H118.009V27.6807L111.162 38.5074H108.423V23.3074H111.162V34.1341L118.009 23.3074ZM118.064 19.4141C118.064 20.2674 117.736 21.0141 117.133 21.5474C116.53 22.0807 115.654 22.3474 114.613 22.3474C113.573 22.3474 112.696 22.0807 112.094 21.5474C111.491 21.0141 111.162 20.3207 111.162 19.4141H113.134C113.134 19.8941 113.244 20.2141 113.518 20.4807C113.792 20.7474 114.175 20.8541 114.613 20.8541C115.106 20.8541 115.435 20.7474 115.709 20.4807C115.983 20.2141 116.092 19.8941 116.092 19.4141H118.064Z" fill="black"/>
</g>
<mask id="mask6_1297_81" style="mask-type:luminance" maskUnits="userSpaceOnUse" x="-47" y="-201" width="327" height="450">
<path d="M279.82 -200.533H-46.2668V248.48H279.82V-200.533Z" fill="white"/>
</mask>
<g mask="url(#mask6_1297_81)">
<path d="M190.588 33.5471C190.424 35.1471 189.821 36.4271 188.726 37.3338C187.63 38.2404 186.206 38.7204 184.453 38.7204C183.193 38.7204 182.098 38.4538 181.167 37.8671C180.236 37.2804 179.469 36.4804 178.976 35.4138C178.483 34.3471 178.209 33.1204 178.154 31.7338V30.2938C178.154 28.8538 178.428 27.5738 178.921 26.5071C179.469 25.4404 180.181 24.5871 181.167 24.0004C182.153 23.4138 183.248 23.0938 184.563 23.0938C186.261 23.0938 187.685 23.5738 188.726 24.4804C189.767 25.3871 190.369 26.6671 190.534 28.3204H187.849C187.74 27.2538 187.411 26.4538 186.864 25.9738C186.316 25.4938 185.549 25.2271 184.563 25.2271C183.358 25.2271 182.481 25.6538 181.824 26.5071C181.167 27.3604 180.893 28.5871 180.838 30.1871V31.5204C180.838 33.1738 181.167 34.4004 181.769 35.3071C182.372 36.1604 183.248 36.5871 184.399 36.5871C185.439 36.5871 186.261 36.3738 186.809 35.8938C187.357 35.4138 187.685 34.6671 187.849 33.5471H190.588Z" fill="black"/>
</g>
<mask id="mask7_1297_81" style="mask-type:luminance" maskUnits="userSpaceOnUse" x="-47" y="-201" width="327" height="450">
<path d="M279.82 -200.533H-46.2668V248.48H279.82V-200.533Z" fill="white"/>
</mask>
<g mask="url(#mask7_1297_81)">
<path d="M193.546 38.5066V23.3066H198.915C200.667 23.3066 202.037 23.6266 202.968 24.32C203.899 25.0133 204.337 26.0266 204.337 27.4133C204.337 28.1066 204.118 28.7466 203.735 29.28C203.351 29.8133 202.804 30.2933 202.037 30.56C202.858 30.7733 203.516 31.2 204.009 31.84C204.447 32.48 204.721 33.1733 204.721 34.08C204.721 35.52 204.228 36.5866 203.297 37.3866C202.365 38.1333 200.996 38.56 199.243 38.56H193.546V38.5066ZM196.285 29.7066H198.969C199.791 29.7066 200.448 29.5466 200.941 29.1733C201.434 28.8 201.653 28.2666 201.653 27.5733C201.653 26.8266 201.434 26.2933 200.996 25.92C200.558 25.6 199.846 25.44 198.969 25.44H196.34V29.7066H196.285ZM196.285 31.6266V36.3733H199.298C200.174 36.3733 200.832 36.16 201.27 35.7333C201.763 35.3066 201.982 34.7733 201.982 34.0266C201.982 32.4266 201.16 31.6266 199.517 31.6266H196.285Z" fill="black"/>
</g>
<mask id="mask8_1297_81" style="mask-type:luminance" maskUnits="userSpaceOnUse" x="-47" y="-201" width="327" height="450">
<path d="M279.82 -200.533H-46.2668V248.48H279.82V-200.533Z" fill="white"/>
</mask>
<g mask="url(#mask8_1297_81)">
<path d="M217.101 31.68H210.637V36.3733H218.141V38.5066H207.953V23.3066H218.087V25.3866H210.637V29.6H217.101V31.68Z" fill="black"/>
</g>
<mask id="mask9_1297_81" style="mask-type:luminance" maskUnits="userSpaceOnUse" x="-47" y="-201" width="327" height="450">
<path d="M279.82 -200.533H-46.2668V248.48H279.82V-200.533Z" fill="white"/>
</mask>
<g mask="url(#mask9_1297_81)">
<path d="M232.219 25.3866H227.344V38.5066H224.66V25.3866H219.839V23.3066H232.219V25.3866Z" fill="black"/>
</g>
<mask id="mask10_1297_81" style="mask-type:luminance" maskUnits="userSpaceOnUse" x="-47" y="-201" width="327" height="450">
<path d="M279.82 -200.533H-46.2668V248.48H279.82V-200.533Z" fill="white"/>
</mask>
<g mask="url(#mask10_1297_81)">
<path d="M169.609 28.5867C169.609 38.9867 160.955 47.4134 150.273 47.4134C139.592 47.4134 130.937 38.9867 130.937 28.5867C130.937 18.1867 139.592 9.76002 150.273 9.76002C160.955 9.70668 169.609 18.1867 169.609 28.5867Z" fill="#E80017"/>
</g>
<mask id="mask11_1297_81" style="mask-type:luminance" maskUnits="userSpaceOnUse" x="-47" y="-201" width="327" height="450">
<path d="M279.82 -200.533H-46.2668V248.48H279.82V-200.533Z" fill="white"/>
</mask>
<g mask="url(#mask11_1297_81)">
<path d="M135.1 5.3332C135.1 7.99987 132.909 10.1332 130.17 10.1332C127.431 10.1332 125.24 7.99987 125.24 5.3332C125.24 2.66654 127.431 0.533203 130.17 0.533203C132.854 0.533203 135.1 2.66654 135.1 5.3332Z" fill="#E80017"/>
</g>
</g>
<defs>
<clipPath id="clip0_1297_81">
<rect width="232" height="48" fill="white"/>
</clipPath>
</defs>
</svg>
