<svg width="22" height="22" viewBox="0 0 22 22" fill="none" xmlns="http://www.w3.org/2000/svg">
<path d="M11 0.257812C5.06726 0.257812 0.257812 5.06726 0.257812 11C0.257812 16.9327 5.06726 21.7422 11 21.7422C16.9327 21.7422 21.7422 16.9327 21.7422 11C21.7422 5.06726 16.9327 0.257812 11 0.257812ZM11.1388 17.498C9.93597 17.498 8.82578 17.1766 7.8543 16.6714L4.06089 17.8654L5.30991 14.2836C4.70856 13.2733 4.33847 12.0793 4.33847 10.8396C4.33847 7.11997 7.39166 4.13514 11.1388 4.13514C14.8859 4.08921 17.9391 7.0742 17.9391 10.7936C17.9391 14.513 14.8859 17.498 11.1388 17.498Z" fill="#1D1D1B"/>
<path d="M11.1388 5.14526C7.9931 5.14526 5.40247 7.67088 5.40247 10.7935C5.40225 11.9872 5.79214 13.1482 6.51278 14.0998L5.81883 16.2121L8.03937 15.5233C8.9762 16.1291 10.0695 16.4483 11.1851 16.4417C14.3308 16.4417 16.9214 13.9161 16.9214 10.7935C16.8751 7.67088 14.2845 5.14526 11.1388 5.14526ZM14.537 12.7567L14.4676 13.0882C14.4282 13.2741 14.3525 13.4505 14.2448 13.6071C14.1371 13.7638 13.9994 13.8975 13.8398 14.0008C13.4285 14.2591 12.9003 14.3882 12.2249 14.1988C10.1338 13.609 8.95186 12.2315 8.3154 11.3706C7.67895 10.5096 7.43222 9.64865 7.59241 8.94714C7.70065 8.47792 8.04698 8.112 8.26345 7.92689C8.37079 7.8364 8.50862 7.7903 8.6488 7.79798L9.09473 7.82376C9.13788 7.82646 9.17942 7.8412 9.21462 7.86631C9.24982 7.89142 9.27728 7.92589 9.29389 7.96582L9.94327 9.48107C9.95981 9.52091 9.96492 9.56457 9.95804 9.60715C9.95115 9.64974 9.93255 9.68956 9.9043 9.72217L9.33711 10.3722C9.31493 10.3979 9.30101 10.4298 9.29718 10.4635C9.29335 10.4973 9.29978 10.5315 9.31563 10.5616C10.0647 11.9907 11.4241 12.559 11.8311 12.7011C11.8646 12.713 11.9012 12.714 11.9354 12.704C11.9696 12.694 11.9997 12.6734 12.0215 12.6452L12.6145 11.879C12.6469 11.8376 12.6923 11.8084 12.7433 11.7959C12.7944 11.7834 12.8481 11.7885 12.8959 11.8102L14.4069 12.499C14.4543 12.5212 14.4929 12.5587 14.5165 12.6054C14.5401 12.6521 14.5473 12.7054 14.537 12.7567Z" fill="#1D1D1B"/>
</svg>
