<svg width="20" height="24" viewBox="0 0 20 24" fill="none" xmlns="http://www.w3.org/2000/svg">
<path fill-rule="evenodd" clip-rule="evenodd" d="M0.125456 18.8369C0.0640172 18.9872 0.0490345 19.1525 0.0824409 19.3115C0.115847 19.4704 0.19611 19.6156 0.312872 19.7285C2.82187 22.153 6.23871 23.6458 10 23.6458C13.7614 23.6458 17.1782 22.153 19.6872 19.7285C19.804 19.6156 19.8842 19.4704 19.9176 19.3115C19.951 19.1525 19.9361 18.9872 19.8746 18.8369C18.2854 14.9445 14.4601 12.1993 10 12.1993C5.53996 12.1993 1.71471 14.9445 0.125456 18.8369ZM1.85662 18.942C3.31804 15.9152 6.41637 13.8243 10 13.8243C13.5837 13.8243 16.682 15.9152 18.1435 18.942C15.9714 20.8584 13.1211 22.0208 10 22.0208C6.87896 22.0208 4.02871 20.8573 1.85662 18.942ZM10 0.354172C8.56601 0.355033 7.19097 0.925079 6.17696 1.93909C5.16295 2.9531 4.5929 4.32815 4.59204 5.76217C4.59204 8.74784 7.01546 11.1713 10 11.1713C12.9846 11.1713 15.408 8.74784 15.408 5.76217C15.4072 4.32815 14.8371 2.9531 13.8231 1.93909C12.8091 0.925079 11.4341 0.355033 10 0.354172ZM10 1.97917C10.9924 1.99596 11.9385 2.40197 12.6343 3.1097C13.3302 3.81742 13.7201 4.7702 13.7201 5.76271C13.7201 6.75523 13.3302 7.70801 12.6343 8.41573C11.9385 9.12346 10.9924 9.52946 10 9.54626C9.01578 9.5174 8.0815 9.10613 7.3955 8.39973C6.7095 7.69333 6.32577 6.7474 6.32577 5.76271C6.32577 4.77803 6.7095 3.8321 7.3955 3.1257C8.0815 2.41929 9.01578 2.00802 10 1.97917Z" fill="#1D1D1B"/>
</svg>
