<svg width="30" height="30" viewBox="0 0 30 30" fill="none" xmlns="http://www.w3.org/2000/svg">
<path fill-rule="evenodd" clip-rule="evenodd" d="M27.175 11.4013C27.1969 11.2671 27.1895 11.1299 27.1531 10.9989C27.1167 10.868 27.0522 10.7466 26.9643 10.643C26.8763 10.5394 26.7668 10.4562 26.6435 10.3992C26.5202 10.3421 26.3859 10.3125 26.25 10.3125H3.75003C3.61413 10.3125 3.47987 10.3421 3.35655 10.3992C3.23322 10.4562 3.12377 10.5394 3.03578 10.643C2.9478 10.7466 2.88338 10.868 2.84699 10.9989C2.8106 11.1299 2.8031 11.2671 2.82503 11.4013L4.73128 23.055C4.86294 23.8598 5.27643 24.5916 5.89789 25.1196C6.51935 25.6476 7.30828 25.9375 8.12378 25.9375H21.8763C22.6918 25.9375 23.4807 25.6476 24.1022 25.1196C24.7236 24.5916 25.1371 23.8598 25.2688 23.055L27.175 11.4013ZM25.1463 12.1875L23.4175 22.7525C23.3577 23.1181 23.1698 23.4506 22.8875 23.6906C22.6052 23.9305 22.2468 24.0623 21.8763 24.0625H8.12378C7.75327 24.0623 7.39488 23.9305 7.11257 23.6906C6.83026 23.4506 6.6424 23.1181 6.58253 22.7525L4.85378 12.1875H25.1463Z" fill="#1D1D1B"/>
<path fill-rule="evenodd" clip-rule="evenodd" d="M23.3036 10.7675L19.5536 4.51752C19.4244 4.30699 19.2173 4.15597 18.9773 4.0973C18.7373 4.03862 18.4839 4.07703 18.2721 4.20418C18.0603 4.33133 17.9073 4.53693 17.8462 4.7763C17.7852 5.01568 17.8211 5.26947 17.9461 5.48252L21.6961 11.7325C21.8254 11.9431 22.0325 12.0941 22.2724 12.1527C22.5124 12.2114 22.7658 12.173 22.9776 12.0459C23.1894 11.9187 23.3425 11.7131 23.4035 11.4737C23.4646 11.2344 23.4287 10.9806 23.3036 10.7675ZM8.30362 11.7325L12.0536 5.48252C12.1787 5.26947 12.2146 5.01568 12.1535 4.7763C12.0925 4.53693 11.9394 4.33133 11.7276 4.20418C11.5158 4.07703 11.2624 4.03862 11.0224 4.0973C10.7825 4.15597 10.5754 4.30699 10.4461 4.51752L6.69612 10.7675C6.57107 10.9806 6.53517 11.2344 6.59622 11.4737C6.65726 11.7131 6.81032 11.9187 7.02212 12.0459C7.23392 12.173 7.48734 12.2114 7.72731 12.1527C7.96728 12.0941 8.17439 11.9431 8.30362 11.7325ZM14.0624 15.625V20.625C14.0624 20.8737 14.1611 21.1121 14.337 21.2879C14.5128 21.4638 14.7512 21.5625 14.9999 21.5625C15.2485 21.5625 15.487 21.4638 15.6628 21.2879C15.8386 21.1121 15.9374 20.8737 15.9374 20.625V15.625C15.9374 15.3764 15.8386 15.1379 15.6628 14.9621C15.487 14.7863 15.2485 14.6875 14.9999 14.6875C14.7512 14.6875 14.5128 14.7863 14.337 14.9621C14.1611 15.1379 14.0624 15.3764 14.0624 15.625ZM9.06237 15.625V20.625C9.06237 20.8737 9.16114 21.1121 9.33696 21.2879C9.51277 21.4638 9.75123 21.5625 9.99987 21.5625C10.2485 21.5625 10.487 21.4638 10.6628 21.2879C10.8386 21.1121 10.9374 20.8737 10.9374 20.625V15.625C10.9374 15.3764 10.8386 15.1379 10.6628 14.9621C10.487 14.7863 10.2485 14.6875 9.99987 14.6875C9.75123 14.6875 9.51277 14.7863 9.33696 14.9621C9.16114 15.1379 9.06237 15.3764 9.06237 15.625ZM19.0624 15.625V20.625C19.0624 20.8737 19.1611 21.1121 19.337 21.2879C19.5128 21.4638 19.7512 21.5625 19.9999 21.5625C20.2485 21.5625 20.487 21.4638 20.6628 21.2879C20.8386 21.1121 20.9374 20.8737 20.9374 20.625V15.625C20.9374 15.3764 20.8386 15.1379 20.6628 14.9621C20.487 14.7863 20.2485 14.6875 19.9999 14.6875C19.7512 14.6875 19.5128 14.7863 19.337 14.9621C19.1611 15.1379 19.0624 15.3764 19.0624 15.625Z" fill="#1D1D1B"/>
<path fill-rule="evenodd" clip-rule="evenodd" d="M27.5 10.3125H2.5C2.25136 10.3125 2.0129 10.4113 1.83709 10.5871C1.66127 10.7629 1.5625 11.0014 1.5625 11.25C1.5625 11.4986 1.66127 11.7371 1.83709 11.9129C2.0129 12.0887 2.25136 12.1875 2.5 12.1875H27.5C27.7486 12.1875 27.9871 12.0887 28.1629 11.9129C28.3387 11.7371 28.4375 11.4986 28.4375 11.25C28.4375 11.0014 28.3387 10.7629 28.1629 10.5871C27.9871 10.4113 27.7486 10.3125 27.5 10.3125Z" fill="#1D1D1B"/>
</svg>
