<svg width="18" height="18" viewBox="0 0 18 18" fill="none" xmlns="http://www.w3.org/2000/svg">
<g clip-path="url(#clip0_633_21721)">
<path d="M3.93749 11.25H5.06249C5.68406 11.25 6.18749 10.746 6.18749 10.125V8.99999C6.18749 8.37843 5.68406 7.87499 5.06249 7.87499H3.93749C3.31593 7.87499 2.8125 8.37843 2.8125 8.99999V10.125C2.8125 10.746 3.31593 11.25 3.93749 11.25ZM3.93749 8.99999H5.06249V10.125H3.93749V8.99999ZM12.9375 15.75H14.0625C14.684 15.75 15.1875 15.2465 15.1875 14.625V13.5C15.1875 12.8784 14.684 12.375 14.0625 12.375H12.9375C12.3165 12.375 11.8125 12.8784 11.8125 13.5V14.625C11.8125 15.2465 12.3159 15.75 12.9375 15.75ZM12.9375 13.5H14.0625V14.625H12.9375V13.5ZM12.9375 11.25H14.0625C14.684 11.25 15.1875 10.746 15.1875 10.125V8.99999C15.1875 8.37843 14.684 7.87499 14.0625 7.87499H12.9375C12.3165 7.87499 11.8125 8.37843 11.8125 8.99999V10.125C11.8125 10.746 12.3159 11.25 12.9375 11.25ZM12.9375 8.99999H14.0625V10.125H12.9375V8.99999ZM15.1875 1.125H12.9375V0.562499C12.9375 0.251994 12.6855 0 12.375 0C12.0645 0 11.8125 0.251994 11.8125 0.562499V1.125H6.18752V0.562499C6.18749 0.251994 5.9355 0 5.62499 0C5.31449 0 5.06249 0.251994 5.06249 0.562499V1.125H2.8125C1.56995 1.125 0.5625 2.13245 0.5625 3.375V15.75C0.5625 16.9925 1.56995 18 2.8125 18H15.1875C16.43 18 17.4375 16.9925 17.4375 15.75V3.375C17.4375 2.13242 16.43 1.125 15.1875 1.125ZM16.3125 15.75C16.3125 16.3715 15.8091 16.875 15.1875 16.875H2.8125C2.19094 16.875 1.6875 16.371 1.6875 15.75V5.62499H16.3125V15.75H16.3125ZM16.3125 4.49999H1.6875V3.375C1.6875 2.75343 2.19094 2.25 2.8125 2.25H5.06249V2.8125C5.06249 3.123 5.31449 3.375 5.62499 3.375C5.9355 3.375 6.18749 3.123 6.18749 2.8125V2.25H11.8125V2.8125C11.8125 3.123 12.0645 3.375 12.375 3.375C12.6855 3.375 12.9375 3.123 12.9375 2.8125V2.25H15.1875C15.8091 2.25 16.3125 2.75343 16.3125 3.375V4.49999ZM8.43749 15.75H9.56249C10.184 15.75 10.6875 15.2465 10.6875 14.625V13.5C10.6875 12.8784 10.184 12.375 9.56249 12.375H8.43749C7.81651 12.375 7.31249 12.8784 7.31249 13.5V14.625C7.31249 15.2465 7.81593 15.75 8.43749 15.75ZM8.43749 13.5H9.56249V14.625H8.43749V13.5ZM8.43749 11.25H9.56249C10.184 11.25 10.6875 10.746 10.6875 10.125V8.99999C10.6875 8.37843 10.184 7.87499 9.56249 7.87499H8.43749C7.81651 7.87499 7.31249 8.37843 7.31249 8.99999V10.125C7.31249 10.746 7.81593 11.25 8.43749 11.25ZM8.43749 8.99999H9.56249V10.125H8.43749V8.99999ZM3.93749 15.75H5.06249C5.68406 15.75 6.18749 15.2465 6.18749 14.625V13.5C6.18749 12.8784 5.68406 12.375 5.06249 12.375H3.93749C3.31593 12.375 2.8125 12.8784 2.8125 13.5V14.625C2.8125 15.2465 3.31593 15.75 3.93749 15.75ZM3.93749 13.5H5.06249V14.625H3.93749V13.5Z" fill="#1D1D1B"/>
</g>
<defs>
<clipPath id="clip0_633_21721">
<rect width="18" height="18" fill="white"/>
</clipPath>
</defs>
</svg>
