<svg width="26" height="26" viewBox="0 0 26 26" fill="none" xmlns="http://www.w3.org/2000/svg">
<path d="M13 6.69754C16.3226 6.69754 19.135 8.21199 20.9093 9.48294C23.0116 10.9886 24.0933 12.4445 24.3734 13C24.0926 13.5555 23.0116 15.0123 20.9093 16.5175C19.1352 17.7887 16.3228 19.3033 13 19.3033C9.67723 19.3033 6.86466 17.7887 5.09041 16.5175C2.98817 15.0123 1.90689 13.5555 1.62596 13C1.90689 12.4445 2.98817 10.9886 5.09001 9.48294C6.86466 8.21199 9.67728 6.69754 13 6.69754ZM13 5.12149C5.82055 5.12149 0 11.4248 0 13C0 14.576 5.82055 20.8785 13 20.8785C20.1795 20.8785 26 14.576 26 13C26 11.4248 20.1797 5.12149 13 5.12149ZM13 8.27272C12.065 8.27275 11.1511 8.55003 10.3737 9.06949C9.59633 9.58894 8.99045 10.3273 8.63267 11.1911C8.2749 12.0549 8.18131 13.0053 8.36373 13.9223C8.54615 14.8393 8.99639 15.6816 9.65752 16.3427C10.3186 17.0038 11.161 17.4541 12.078 17.6365C12.995 17.8188 13.9454 17.7252 14.8092 17.3674C15.673 17.0096 16.4113 16.4037 16.9307 15.6263C17.4502 14.8489 17.7274 13.935 17.7274 13C17.7273 11.7463 17.2292 10.5439 16.3427 9.65739C15.4561 8.77087 14.2537 8.2728 13 8.27272ZM11.7275 13C11.3319 13 10.9452 12.8828 10.6163 12.6631C10.2873 12.4433 10.0309 12.131 9.87951 11.7655C9.7281 11.4001 9.68846 10.9979 9.7656 10.61C9.84274 10.222 10.0332 9.86557 10.3129 9.58584C10.5926 9.30611 10.949 9.1156 11.3369 9.03841C11.7249 8.96122 12.1271 9.00081 12.4925 9.15218C12.858 9.30355 13.1704 9.55989 13.3902 9.8888C13.6099 10.2177 13.7272 10.6044 13.7272 11C13.7273 11.5304 13.5166 12.0391 13.1416 12.4141C12.7665 12.7892 12.2579 12.9999 11.7275 13Z" fill="#1D1D1B"/>
</svg>
