<svg width="26" height="26" viewBox="0 0 26 26" fill="none" xmlns="http://www.w3.org/2000/svg">
<path fill-rule="evenodd" clip-rule="evenodd" d="M4.28162 14.3352L4.28063 14.3342L12.3687 22.4213C12.4377 22.4903 12.5196 22.5451 12.6098 22.5825C12.6999 22.6199 12.7966 22.6392 12.8942 22.6392C12.9918 22.6392 13.0885 22.6199 13.1787 22.5825C13.2688 22.5451 13.3508 22.4903 13.4197 22.4213L21.5088 14.3332C22.7198 13.121 23.4 11.4776 23.4 9.76413C23.4 8.05066 22.7198 6.40728 21.5088 5.19507C20.3824 4.0701 18.8806 3.40028 17.291 3.31392C15.7014 3.22756 14.1358 3.73074 12.8942 4.72706C11.6526 3.73074 10.087 3.22756 8.49745 3.31392C6.90785 3.40028 5.40601 4.0701 4.27964 5.19507C3.06865 6.40728 2.38843 8.05066 2.38843 9.76413C2.38843 11.4776 3.06865 13.121 4.27964 14.3332L4.28162 14.3352ZM12.8942 20.8437L20.4568 13.2812C21.3891 12.3482 21.9128 11.0831 21.9128 9.76413C21.9128 8.44513 21.3891 7.18011 20.4568 6.2471C19.5238 5.31476 18.2587 4.79103 16.9397 4.79103C15.6207 4.79103 14.3557 5.31476 13.4227 6.2471C13.3538 6.31631 13.2719 6.37121 13.1817 6.40865C13.0916 6.44609 12.9948 6.46532 12.8972 6.46524H12.8912C12.7936 6.46532 12.6969 6.44609 12.6067 6.40865C12.5165 6.37121 12.4346 6.31631 12.3657 6.2471C11.4327 5.31476 10.1677 4.79103 8.8487 4.79103C7.5297 4.79103 6.26468 5.31476 5.33167 6.2471C4.39933 7.18011 3.87561 8.44513 3.87561 9.76413C3.87561 11.0831 4.39933 12.3482 5.33167 13.2812L5.33266 13.2821L12.8942 20.8437Z" fill="#1D1D1B"/>
</svg>
