<svg width="25" height="24" viewBox="0 0 25 24" fill="none" xmlns="http://www.w3.org/2000/svg">
<g clip-path="url(#clip0_535_1520)">
<path d="M18.103 16.5994L22.3697 20.8651L20.9601 22.2747L16.6944 18.008C15.1072 19.2804 13.133 19.9724 11.0988 19.9695C6.14971 19.9695 2.13306 15.9529 2.13306 11.0038C2.13306 6.05472 6.14971 2.03807 11.0988 2.03807C16.0479 2.03807 20.0645 6.05472 20.0645 11.0038C20.0674 13.038 19.3754 15.0122 18.103 16.5994ZM16.1047 15.8602C17.3689 14.5601 18.075 12.8173 18.0721 11.0038C18.0721 7.15053 14.9511 4.03046 11.0988 4.03046C7.24552 4.03046 4.12544 7.15053 4.12544 11.0038C4.12544 14.8561 7.24552 17.9772 11.0988 17.9772C12.9123 17.98 14.6551 17.274 15.9552 16.0097L16.1047 15.8602Z" fill="white"/>
</g>
<defs>
<clipPath id="clip0_535_1520">
<rect x="0.140625" y="0.0456848" width="23.9086" height="23.9086" rx="5" fill="white"/>
</clipPath>
</defs>
</svg>
