<svg width="13" height="13" viewBox="0 0 13 13" fill="none" xmlns="http://www.w3.org/2000/svg">
<path d="M5.86212 1.60047C6.04895 1.24176 6.5622 1.24176 6.74903 1.60047L7.19249 1.3695L6.74903 1.60047L8.03225 4.06424C8.27473 4.52981 8.74295 4.83475 9.26682 4.86828L11.6441 5.02043C12.0783 5.04821 12.2723 5.57882 11.9584 5.8801L10.2017 7.56657C9.80994 7.94266 9.65205 8.50113 9.78891 9.02667L10.4679 11.6339C10.5767 12.0517 10.1404 12.4017 9.75613 12.2049L6.98918 10.7882C6.55994 10.5685 6.05121 10.5685 5.62197 10.7882L2.85501 12.2049C2.47072 12.4017 2.03448 12.0517 2.14329 11.6339L2.82224 9.02667C2.9591 8.50113 2.80121 7.94266 2.40945 7.56657L0.65271 5.8801C0.338878 5.57882 0.53289 5.04821 0.967041 5.02043L3.34434 4.86828C3.8682 4.83475 4.33642 4.52981 4.5789 4.06424L5.86212 1.60047Z" fill="#E30613" stroke="#E30613"/>
</svg>
