<svg width="18" height="22" viewBox="0 0 18 22" fill="none" xmlns="http://www.w3.org/2000/svg">
<path d="M11.9737 7.97076C11.6892 7.97076 11.4585 8.20143 11.4585 8.48599V18.2237C11.4585 18.5081 11.6892 18.7389 11.9737 18.7389C12.2583 18.7389 12.489 18.5081 12.489 18.2237V8.48599C12.489 8.20143 12.2583 7.97076 11.9737 7.97076ZM5.89413 7.97076C5.60957 7.97076 5.37891 8.20143 5.37891 8.48599V18.2237C5.37891 18.5081 5.60957 18.7389 5.89413 18.7389C6.17874 18.7389 6.40935 18.5081 6.40935 18.2237V8.48599C6.40935 8.20143 6.17874 7.97076 5.89413 7.97076Z" fill="black"/>
<path d="M1.4633 6.54961V19.2436C1.4633 19.9939 1.73843 20.6985 2.21903 21.204C2.45568 21.4548 2.74097 21.6548 3.05748 21.7916C3.37399 21.9285 3.71508 21.9994 4.05991 22H13.8081C14.1529 21.9994 14.494 21.9285 14.8106 21.7917C15.1271 21.6548 15.4124 21.4548 15.649 21.204C16.1296 20.6985 16.4047 19.9939 16.4047 19.2436V6.54961C17.3601 6.29602 17.9792 5.37305 17.8514 4.39274C17.7234 3.41258 16.8884 2.67942 15.8997 2.67922H13.2619V2.03519C13.2634 1.76709 13.2116 1.50136 13.1095 1.25344C13.0074 1.00551 12.8572 0.780335 12.6674 0.590974C12.4775 0.401631 12.2519 0.251893 12.0037 0.150453C11.7555 0.0490139 11.4897 -0.00210441 11.2215 6.67858e-05H6.64653C6.3784 -0.00211125 6.11251 0.0490037 5.86431 0.150443C5.6161 0.251883 5.39052 0.401625 5.20066 0.590974C5.01086 0.780335 4.86057 1.00551 4.75852 1.25344C4.65646 1.50136 4.60467 1.76709 4.60615 2.03519V2.67922H1.96832C0.979714 2.67942 0.144695 3.41258 0.0166626 4.39274C-0.111112 5.37305 0.507926 6.29602 1.4633 6.54961ZM13.8081 20.9696H4.05996C3.17904 20.9696 2.49374 20.2128 2.49374 19.2436V6.5949H15.3743V19.2436C15.3743 20.2129 14.689 20.9696 13.8081 20.9696ZM5.63659 2.03519C5.63491 1.90236 5.65993 1.77054 5.71016 1.64756C5.7604 1.52459 5.83483 1.41295 5.92903 1.31929C6.02321 1.22558 6.13524 1.15172 6.25849 1.10212C6.38174 1.05251 6.51369 1.02816 6.64653 1.03051H11.2215C11.3544 1.02816 11.4863 1.05251 11.6096 1.10212C11.7328 1.15172 11.8449 1.22558 11.939 1.31929C12.0332 1.41295 12.1077 1.52458 12.1579 1.64756C12.2081 1.77054 12.2331 1.90236 12.2314 2.03519V2.67922H5.63659V2.03519ZM1.96832 3.70966H15.8999C16.412 3.70966 16.8273 4.12488 16.8273 4.63706C16.8273 5.14924 16.412 5.56446 15.8999 5.56446H1.96827C1.45609 5.56446 1.04087 5.14924 1.04087 4.63706C1.04087 4.12488 1.45614 3.70966 1.96832 3.70966Z" fill="black"/>
<path d="M8.93417 7.97076C8.64961 7.97076 8.41895 8.20143 8.41895 8.48599V18.2237C8.41895 18.5081 8.64961 18.7389 8.93417 18.7389C9.21877 18.7389 9.44939 18.5081 9.44939 18.2237V8.48599C9.44939 8.20143 9.21877 7.97076 8.93417 7.97076Z" fill="black"/>
</svg>
