<svg width="25" height="23" viewBox="0 0 25 23" fill="none" xmlns="http://www.w3.org/2000/svg">
<path fill-rule="evenodd" clip-rule="evenodd" d="M20.6214 8.60788C20.8409 8.60788 21.0514 8.69506 21.2065 8.85024C21.3617 9.00542 21.4489 9.21589 21.4489 9.43535C21.4489 9.65481 21.3617 9.86529 21.2065 10.0205C21.0514 10.1756 20.8409 10.2628 20.6214 10.2628C20.402 10.2628 20.1915 10.1756 20.0363 10.0205C19.8811 9.86529 19.7939 9.65481 19.7939 9.43535C19.7939 9.21589 19.8811 9.00542 20.0363 8.85024C20.1915 8.69506 20.402 8.60788 20.6214 8.60788Z" fill="#1D1D1B"/>
<path fill-rule="evenodd" clip-rule="evenodd" d="M6.91271 1.28465H18.0726C18.512 1.28465 18.8635 1.63615 18.8635 2.07551V5.19502H6.12185V2.07551C6.12185 1.63615 6.48799 1.28465 6.91271 1.28465ZM5.53603 6.36667H23.0375C23.4769 6.36667 23.8284 6.71816 23.8284 7.15753V16.6332C23.8284 17.0726 23.4622 17.4241 23.0375 17.4241H20.5477V14.7C20.5483 14.5718 20.5336 14.4439 20.5038 14.3192H21.4851C21.6404 14.3192 21.7894 14.2575 21.8993 14.1476C22.0092 14.0378 22.0709 13.8888 22.0709 13.7334C22.0709 13.578 22.0092 13.429 21.8993 13.3192C21.7894 13.2093 21.6404 13.1476 21.4851 13.1476H3.51494C3.35957 13.1476 3.21056 13.2093 3.1007 13.3192C2.99084 13.429 2.92912 13.578 2.92912 13.7334C2.92912 13.8888 2.99084 14.0378 3.1007 14.1476C3.21056 14.2575 3.35957 14.3192 3.51494 14.3192H4.48155C4.4518 14.4439 4.43705 14.5718 4.43761 14.7V17.4241H1.96251C1.75276 17.4241 1.5516 17.3408 1.40328 17.1924C1.25497 17.0441 1.17165 16.843 1.17165 16.6332V7.15753C1.17165 6.71816 1.52314 6.36667 1.96251 6.36667H5.53603ZM4.9502 2.07551V5.19502H1.96251C1.4432 5.19885 0.946255 5.40685 0.579041 5.77406C0.211827 6.14128 0.00383266 6.63822 0 7.15753L0 16.6332C0 17.717 0.878735 18.5957 1.96251 18.5957H4.43761V21.3344C4.43761 22.1839 5.1406 22.8869 5.99004 22.8869H19.01C19.4217 22.8869 19.8166 22.7233 20.1077 22.4322C20.3988 22.141 20.5624 21.7462 20.5624 21.3344V18.5957H23.0375C24.1066 18.5957 25 17.717 25 16.6332V7.15753C24.9962 6.63822 24.7882 6.14128 24.421 5.77406C24.0537 5.40685 23.5568 5.19885 23.0375 5.19502H20.0351V2.07551C20.0313 1.55621 19.8233 1.05926 19.4561 0.692047C19.0889 0.324833 18.5919 0.116839 18.0726 0.113007H6.91271C6.39341 0.116839 5.89646 0.324833 5.52925 0.692047C5.16203 1.05926 4.95404 1.55621 4.9502 2.07551ZM5.9754 14.3192H19.01C19.215 14.3192 19.3907 14.4803 19.3907 14.7V21.3344C19.3907 21.3845 19.3809 21.434 19.3618 21.4802C19.3426 21.5264 19.3146 21.5683 19.2792 21.6037C19.2439 21.6391 19.2019 21.6671 19.1557 21.6862C19.1095 21.7054 19.06 21.7152 19.01 21.7152H5.9754C5.87696 21.7114 5.78383 21.6697 5.71556 21.5987C5.64728 21.5276 5.60918 21.433 5.60926 21.3344V14.7C5.60926 14.4803 5.785 14.3192 5.99004 14.3192H5.9754Z" fill="#1D1D1B"/>
</svg>
