<svg width="23" height="26" viewBox="0 0 23 26" fill="none" xmlns="http://www.w3.org/2000/svg">
<path d="M18.3738 17.4888C17.1281 17.4888 16.0058 18.0267 15.2268 18.8825L8.2204 14.5431C8.41276 14.0513 8.51138 13.528 8.51117 13C8.51142 12.472 8.41279 11.9486 8.2204 11.4569L15.2268 7.11728C16.0058 7.97305 17.1281 8.51123 18.3738 8.51123C20.7205 8.51123 22.6296 6.60216 22.6296 4.25551C22.6296 1.90886 20.7205 0 18.3738 0C16.0272 0 14.1182 1.90907 14.1182 4.25571C14.1181 4.78369 14.2167 5.30702 14.4089 5.79875L7.40272 10.1382C6.62374 9.28244 5.50143 8.74426 4.25571 8.74426C1.90907 8.74426 0 10.6535 0 13C0 15.3466 1.90907 17.2557 4.25571 17.2557C5.50138 17.2557 6.62379 16.7177 7.40272 15.8617L14.409 20.2012C14.2167 20.693 14.1181 21.2164 14.1182 21.7444C14.1182 24.0909 16.0272 25.9999 18.3738 25.9999C20.7205 25.9999 22.6296 24.0909 22.6296 21.7445C22.6296 19.3978 20.7205 17.4888 18.3738 17.4888ZM15.6699 4.25571C15.6699 2.76478 16.883 1.55182 18.3738 1.55182C19.8647 1.55182 21.0777 2.76478 21.0777 4.25571C21.0777 5.74665 19.8648 6.95961 18.3738 6.95961C16.8829 6.95961 15.6699 5.7466 15.6699 4.25571ZM4.25571 15.7039C2.76458 15.7039 1.55162 14.4909 1.55162 13C1.55162 11.5091 2.76458 10.2961 4.25571 10.2961C5.74665 10.2961 6.9594 11.5091 6.9594 13C6.9594 14.4909 5.7466 15.7039 4.25571 15.7039ZM15.6699 21.7443C15.6699 20.2534 16.883 19.0403 18.3738 19.0403C19.8647 19.0403 21.0777 20.2534 21.0777 21.7442C21.0777 23.2352 19.8648 24.4481 18.3738 24.4481C16.8829 24.4481 15.6699 23.2352 15.6699 21.7442V21.7443Z" fill="#1D1D1B"/>
</svg>
